<?xml version="1.0" encoding="iso-8859-1"?>
<!-- Uploaded to: SVG Repo, www.svgrepo.com, Generator: SVG Repo Mixer Tools -->
<!DOCTYPE svg PUBLIC "-//W3C//DTD SVG 1.1//EN" "http://www.w3.org/Graphics/SVG/1.1/DTD/svg11.dtd">
<svg fill="#000000" version="1.1" id="Capa_1" xmlns="http://www.w3.org/2000/svg" xmlns:xlink="http://www.w3.org/1999/xlink" 
	 width="800px" height="800px" viewBox="0 0 175.489 175.489"
	 xml:space="preserve">
<g>
	<g>
		<path d="M175.311,88.789c0.475-1.092-0.026-2.362-1.123-2.837c-10.958-4.757-19.733,1.809-29.896,9.413
			c-2.067,1.545-4.113,3.243-6.17,4.957c1.461-4.973,0.765-10.062-2.23-14.882c0.248-0.321,0.564-0.564,0.77-0.912
			c1.013-1.801,1.239-3.879,0.654-5.843c-1.149-3.977-5.511-6.423-9.529-5.266c-4.071,1.181-6.428,5.463-5.263,9.547
			c0.954,3.259,3.977,5.538,7.383,5.538c0.728,0,1.45-0.101,2.141-0.301c0.116-0.037,0.222-0.132,0.338-0.18
			c3.892,6.587,2.395,13.643-4.282,20.076c-0.517,0.348-1.013,0.728-1.529,1.049c-0.189,0.111-0.358,0.217-0.554,0.322
			c-6.19,3.797-12.835,5.854-21.009,3.691c-5.432-1.455-9.782-4.915-12.251-9.756c-0.089-0.169-0.11-0.369-0.194-0.559
			c3.817-0.338,9.492-1.52,13.342-5.422c6.265-6.354,5.273-17.497,5.273-17.497s-11.153-0.83-17.424,5.521
			c-1.239,1.261-2.139,2.727-2.866,4.245c0.274-1.593,0.707-3.175,1.295-4.735c0.121-0.333,0.147-0.673,0.116-1.008
			c4.266-10.021,13.647-17.344,24.843-18.726c1.002,2.386,3.333,4.071,6.075,4.071c3.644,0,6.586-2.948,6.586-6.582
			c0-3.63-2.953-6.579-6.586-6.579c-2.985,0-5.4,2.025-6.196,4.741c-11.845,1.323-21.938,8.506-27.338,18.575V53.942
			c2.563-0.902,4.409-3.275,4.409-6.141c0-3.628-2.945-6.579-6.573-6.579c-3.634,0-6.576,2.951-6.576,6.579
			c0,2.86,1.856,5.239,4.406,6.141v25.534C79.972,69.39,69.868,62.203,58.016,60.879c-0.804-2.716-3.23-4.741-6.204-4.741
			c-3.636,0-6.579,2.948-6.579,6.579c0,3.633,2.942,6.582,6.579,6.582c2.748,0,5.081-1.685,6.07-4.071
			c13.553,1.669,24.413,12.058,26.799,25.376c0.011,0.1,0.011,0.2,0.021,0.295c-0.788-1.951-1.906-3.845-3.478-5.442
			c-6.26-6.356-17.421-5.519-17.421-5.519s-1.01,11.141,5.266,17.495c4.029,4.081,10.038,5.188,13.845,5.469
			c-0.092,0.163-0.113,0.353-0.2,0.517c-2.468,4.835-6.813,8.29-12.243,9.745c-8.163,2.173-14.778,0.116-20.956-3.645
			c-0.206-0.126-0.409-0.247-0.615-0.363c-0.509-0.322-1.004-0.686-1.487-1.023c-6.695-6.438-8.206-13.5-4.303-20.092
			c0.113,0.043,0.221,0.138,0.334,0.174c0.702,0.206,1.427,0.301,2.139,0.301c3.409,0,6.431-2.277,7.394-5.542
			c1.17-4.079-1.2-8.355-5.271-9.542c-4.013-1.168-8.379,1.289-9.532,5.26c-0.567,1.97-0.34,4.05,0.644,5.849
			c0.2,0.358,0.535,0.601,0.783,0.912c-3.009,4.825-3.705,9.909-2.231,14.882c-2.057-1.703-4.103-3.412-6.178-4.957
			C21.036,87.771,12.261,81.2,1.306,85.962c-1.097,0.475-1.606,1.751-1.123,2.837c0.475,1.097,1.753,1.593,2.829,1.129
			c6.95-3.017,12.706-0.344,20.777,5.389c-5.727-0.326-10.919,1.861-15.069,6.645c-0.783,0.902-0.675,2.263,0.219,3.038
			c0.401,0.358,0.92,0.538,1.421,0.538c0.604,0,1.221-0.254,1.643-0.744c5.55-6.438,13.387-6.935,22.014-1.45
			c0.119,0.09,0.282,0.116,0.406,0.158c0.264,0.222,0.524,0.417,0.788,0.633c0.422,0.349,0.849,0.696,1.258,1.044
			c-1.231,0.043-2.463,0.274-3.715,0.686c-0.166-0.363-0.274-0.765-0.546-1.081c-1.35-1.671-3.557-2.384-5.216-2.415
			c-3.591,0.253-6.441,1.771-8.49,4.498c-5.787,7.752-2.578,22.893-2.434,23.53l0.841,3.871l2.797-2.816
			c3.71-3.712,6.141-4.962,8.656-5.69c6.497-1.893,12.301-4.16,12-10.932c-0.113-2.357-0.886-4.018-1.951-5.273
			c3.522,0.47,7.285,2.605,11.596,5.348c0.335,0.2,0.691,0.279,1.047,0.301c3.942,1.903,8.213,3.148,12.938,3.148
			c2.397,0,4.936-0.316,7.575-1.023c5.774-1.551,10.465-5.058,13.603-9.84v12.936c0,0.29,0.071,0.564,0.168,0.807v4.388
			c0,1.191,0.97,2.162,2.149,2.162c1.176,0,2.149-0.971,2.149-2.162v-4.451c0.103-0.231,0.15-0.485,0.15-0.754V106.75
			c3.124,5.178,7.997,8.948,14.071,10.578c2.647,0.707,5.168,1.018,7.573,1.018c4.725,0,8.98-1.25,12.94-3.148
			c0.349-0.016,0.723-0.095,1.045-0.306c4.313-2.742,8.078-4.867,11.596-5.342c-1.06,1.25-1.856,2.921-1.956,5.269
			c-0.312,6.781,5.505,9.038,12.002,10.937c2.521,0.723,4.946,1.973,8.648,5.685l2.801,2.816l0.838-3.871
			c0.143-0.643,3.364-15.788-2.431-23.529c-2.036-2.727-4.894-4.246-8.775-4.51c-1.435,0-3.575,0.766-4.925,2.421
			c-0.264,0.327-0.359,0.718-0.554,1.087c-1.239-0.412-2.479-0.644-3.713-0.686c0.411-0.349,0.844-0.696,1.255-1.045
			c0.264-0.221,0.527-0.416,0.786-0.638c0.126-0.048,0.279-0.079,0.4-0.153c8.638-5.489,16.464-4.983,22.022,1.45
			c0.416,0.491,1.018,0.744,1.635,0.744c0.506,0,1.018-0.175,1.418-0.538c0.902-0.78,1.002-2.136,0.222-3.037
			c-4.15-4.783-9.345-6.967-15.071-6.635c8.084-5.737,13.832-8.405,20.777-5.399C173.555,90.381,174.836,89.885,175.311,88.789z
			 M132.87,82.442c-0.433,0.789-1.149,1.361-2.025,1.608c-1.745,0.509-3.67-0.562-4.16-2.288c-0.527-1.793,0.521-3.673,2.304-4.19
			c0.316-0.092,0.623-0.137,0.949-0.137c1.477,0,2.816,1.005,3.243,2.452C133.413,80.747,133.312,81.654,132.87,82.442z
			 M42.373,79.876c0.409-1.442,1.743-2.447,3.238-2.447c0.324,0,0.633,0.045,0.946,0.137c1.788,0.517,2.813,2.402,2.31,4.185
			c-0.506,1.732-2.397,2.808-4.168,2.294c-0.862-0.248-1.582-0.82-2.025-1.608C42.214,81.654,42.117,80.747,42.373,79.876z
			 M27.198,121.611c-2.674,0.78-5.002,2.004-7.47,4.019c-0.562-4.974-0.625-12.282,2.291-16.18c1.273-1.708,3.024-2.615,5.313-2.784
			c0.243,0,1.107,0.253,1.572,0.828c0.082,0.09,0.021,0.227,0.065,0.321c-2.23,1.566-4.461,3.882-6.636,7.268
			c-0.638,1.002-0.34,2.341,0.651,2.984c0.351,0.227,0.778,0.332,1.179,0.332c0.707,0,1.403-0.338,1.814-0.991
			c1.911-2.979,3.768-5.005,5.664-6.26c0.087-0.011,0.255-0.031,0.562-0.031c3.317,0,3.797,2.23,3.878,3.902
			C36.205,117.75,34.958,119.354,27.198,121.611z M143.327,111.117c0.316,0,0.496,0.021,0.559,0.026
			c1.898,1.26,3.755,3.274,5.664,6.265c0.411,0.638,1.107,0.991,1.835,0.991c0.391,0,0.791-0.11,1.166-0.332
			c1.012-0.644,1.281-1.982,0.653-2.984c-2.167-3.386-4.388-5.701-6.639-7.268c0.042-0.095-0.011-0.227,0.062-0.321
			c0.47-0.575,1.329-0.828,1.562-0.828c2.32,0.169,4.061,1.076,5.32,2.784c2.911,3.887,2.854,11.201,2.294,16.18
			c-2.468-2.004-4.793-3.244-7.462-4.008c-7.762-2.268-9.012-3.86-8.886-6.603C139.53,113.347,140.01,111.117,143.327,111.117z"/>
	</g>
</g>
</svg>